<svg width="212" height="212" fill="none" xmlns="http://www.w3.org/2000/svg"><path fill-rule="evenodd" clip-rule="evenodd" d="M193.209 106.25a39.518 39.518 0 0 0-21.427-26.313 32.679 32.679 0 0 0-14.111-2.84.886.886 0 0 1-.795-1.363A32.432 32.432 0 0 0 161.42 62.1a39.565 39.565 0 0 0-12.065-31.811 36.358 36.358 0 0 0-14.884-8.93c-9.77-2.931-17.473-1.431-21.654 4.204a20.446 20.446 0 0 0-3.658 11.361 18.948 18.948 0 0 0 2.999 12.225 14.417 14.417 0 0 0 9.998 5.84 14.133 14.133 0 0 0 10.884-3.523 13.773 13.773 0 0 0 4.544-9.93 3.932 3.932 0 0 0-3.294-4.021 3.753 3.753 0 0 0-3.875 2.185 3.738 3.738 0 0 0-.329 1.541 6.174 6.174 0 0 1-2.113 4.545 6.544 6.544 0 0 1-5.045 1.658 6.817 6.817 0 0 1-4.703-2.749 11.726 11.726 0 0 1-1.636-7.476 13.288 13.288 0 0 1 2.272-7.294c2.931-3.93 9.703-2.635 13.475-1.5a28.872 28.872 0 0 1 11.792 7.113 32.353 32.353 0 0 1 9.839 25.608 27.749 27.749 0 0 1-14.383 20.905l-.182.136-.977.568a2.272 2.272 0 0 1-2.954-.59 37.684 37.684 0 0 0-29.539-14.278 37.697 37.697 0 0 0-29.539 14.277 2.272 2.272 0 0 1-2.931.591l-.977-.568-.182-.136A27.79 27.79 0 0 1 57.92 61.146a32.517 32.517 0 0 1 9.838-25.608 28.948 28.948 0 0 1 11.816-7.112c3.772-1.136 10.543-2.454 13.475 1.5a13.224 13.224 0 0 1 2.272 7.293 11.86 11.86 0 0 1-1.614 7.476 6.818 6.818 0 0 1-4.703 2.75 6.498 6.498 0 0 1-5.067-1.66 6.182 6.182 0 0 1-2.113-4.544 3.75 3.75 0 0 0-4.204-3.726 3.931 3.931 0 0 0-3.295 4.022 13.793 13.793 0 0 0 4.545 9.93 14.087 14.087 0 0 0 10.884 3.521 14.36 14.36 0 0 0 10.066-5.726 18.863 18.863 0 0 0 3.022-12.202 20.741 20.741 0 0 0-3.658-11.36c-4.204-5.636-11.884-7.136-21.655-4.205a36.219 36.219 0 0 0-14.883 8.93A39.492 39.492 0 0 0 50.58 62.237a32.38 32.38 0 0 0 4.545 13.633.885.885 0 0 1-.795 1.364 32.651 32.651 0 0 0-14.088 2.84 39.605 39.605 0 0 0-21.45 26.312 36.561 36.561 0 0 0-.296 17.36c2.273 9.93 7.499 15.906 14.474 16.633.613.045 1.228.045 1.841 0 3.45-.085 6.83-.988 9.861-2.636a18.746 18.746 0 0 0 9.09-8.702 14.343 14.343 0 0 0 0-11.566 14.074 14.074 0 0 0-8.499-7.68 13.864 13.864 0 0 0-10.884.977 3.929 3.929 0 0 0-1.84 4.885 3.74 3.74 0 0 0 2.26 2.08 3.74 3.74 0 0 0 3.057-.308 6.167 6.167 0 0 1 5.067-.5 6.55 6.55 0 0 1 3.954 3.568 6.817 6.817 0 0 1 0 5.431 11.638 11.638 0 0 1-5.658 5.135 13.085 13.085 0 0 1-7.408 1.772c-4.885-.568-7.135-7.089-8.044-10.929a28.88 28.88 0 0 1 .273-13.77A32.313 32.313 0 0 1 43.31 86.8a27.766 27.766 0 0 1 25.266 2l1.182.68a2.272 2.272 0 0 1 .954 2.841 37.787 37.787 0 0 0 31.539 51.353v2.636a3.522 3.522 0 0 0 0 .681 27.697 27.697 0 0 1-10.907 22.904 32.465 32.465 0 0 1-27.13 4.34 29.033 29.033 0 0 1-12.111-6.816c-2.886-2.704-7.408-7.93-5.454-12.429a13.134 13.134 0 0 1 5.227-5.545 11.75 11.75 0 0 1 7.27-2.272 6.824 6.824 0 0 1 4.75 2.681 6.59 6.59 0 0 1 1.09 5.204 6.251 6.251 0 0 1-2.954 4.158 3.729 3.729 0 0 0-1.741 4.263c.152.533.42 1.025.787 1.44a3.929 3.929 0 0 0 4.976.614 13.782 13.782 0 0 0 6.272-8.93 14.066 14.066 0 0 0-2.386-11.18 14.432 14.432 0 0 0-10.066-5.726 18.705 18.705 0 0 0-12.066 3.5 20.315 20.315 0 0 0-8.044 8.861c-2.794 6.453-.227 13.861 7.18 20.86a36.209 36.209 0 0 0 15.18 8.407 41.066 41.066 0 0 0 11.179 1.545 38.338 38.338 0 0 0 22.336-6.953 32.202 32.202 0 0 0 9.498-10.816.93.93 0 0 1 1.613 0 32.267 32.267 0 0 0 9.521 10.816 38.217 38.217 0 0 0 22.313 6.953c3.78.004 7.542-.516 11.18-1.545a36.209 36.209 0 0 0 15.178-8.407c7.43-6.999 9.975-14.407 7.18-20.86a20.446 20.446 0 0 0-8.021-8.861 18.814 18.814 0 0 0-12.088-3.5 14.331 14.331 0 0 0-10.043 5.726 13.975 13.975 0 0 0-2.386 11.18 13.64 13.64 0 0 0 6.271 8.93 3.934 3.934 0 0 0 4.977-.614c.358-.419.62-.911.768-1.442a3.78 3.78 0 0 0-1.723-4.261 6.081 6.081 0 0 1-2.954-4.158 6.506 6.506 0 0 1 1.091-5.204 6.824 6.824 0 0 1 4.726-2.681c2.61-.077 5.17.723 7.271 2.272a13.198 13.198 0 0 1 5.249 5.545c1.932 4.544-2.59 9.725-5.453 12.429a29.13 29.13 0 0 1-12.066 6.657 32.466 32.466 0 0 1-27.107-4.294 27.81 27.81 0 0 1-10.907-22.882v-1.363a2.268 2.268 0 0 1 1.977-2.272 37.858 37.858 0 0 0 32.129-37.197 37.443 37.443 0 0 0-2.59-13.633 2.273 2.273 0 0 1 .954-2.84l1.204-.705a27.815 27.815 0 0 1 25.29-2 32.398 32.398 0 0 1 17.247 21.337 28.884 28.884 0 0 1 .227 13.747c-.909 3.84-3.159 10.361-8.021 10.929a13.11 13.11 0 0 1-7.43-1.772 11.63 11.63 0 0 1-5.658-5.135 6.82 6.82 0 0 1 0-5.431 6.552 6.552 0 0 1 3.954-3.567 6.242 6.242 0 0 1 4.748.318 4.095 4.095 0 0 0 5.045-.636 3.73 3.73 0 0 0 .232-4.582 3.72 3.72 0 0 0-1.209-1.099 13.818 13.818 0 0 0-11.134-1.136 14.023 14.023 0 0 0-8.476 7.566 14.345 14.345 0 0 0 0 11.566 18.82 18.82 0 0 0 9.089 8.703c3.558 2 7.637 2.879 11.702 2.522 6.953-.795 12.111-6.817 14.452-16.633a36.362 36.362 0 0 0-.25-17.337ZM106 75.666a30.265 30.265 0 0 1 22.382 9.907 2.277 2.277 0 0 1-.568 3.522l-19.541 11.361a4.546 4.546 0 0 1-4.545 0L84.187 89.095a2.272 2.272 0 0 1-.546-3.522A30.223 30.223 0 0 1 106 75.666Zm-30.334 30.402a30.516 30.516 0 0 1 1.409-9.089 2.273 2.273 0 0 1 3.317-1.272l19.587 11.361a4.541 4.541 0 0 1 2.272 3.931v22.586a2.268 2.268 0 0 1-1.748 2.267 2.27 2.27 0 0 1-1.024.005 30.378 30.378 0 0 1-23.813-29.789Zm60.669 0a30.358 30.358 0 0 1-23.791 29.539 2.263 2.263 0 0 1-1.925-.47 2.276 2.276 0 0 1-.824-1.802v-22.563a4.546 4.546 0 0 1 2.272-3.931l19.564-11.361a2.275 2.275 0 0 1 3.318 1.295 30.376 30.376 0 0 1 1.386 9.293Z" fill="#fff"/><path d="M31.319 59.5a6.817 6.817 0 1 1 7.574 11.336A6.817 6.817 0 0 1 31.32 59.5ZM176.894 58.351a6.817 6.817 0 1 0 0 13.634 6.817 6.817 0 0 0 0-13.634ZM106 181.052a6.817 6.817 0 1 0 .001 13.634 6.817 6.817 0 0 0-.001-13.634Z" fill="#fff"/><path fill-rule="evenodd" clip-rule="evenodd" d="M106 0C47.458 0 0 47.458 0 106s47.458 106 106 106 106-47.458 106-106S164.542 0 106 0ZM7.498 106C7.498 51.6 51.6 7.498 106 7.498c54.401 0 98.502 44.101 98.502 98.502 0 54.401-44.101 98.502-98.502 98.502-54.4 0-98.502-44.101-98.502-98.502Z" fill="#fff"/></svg>